USFL
nRows=312
nColumns=2
inDegrees=yes
endheader
time	tib_ant_r	
1.69646	 62.399396	
1.72973	 62.313633	
1.76299	 62.296754	
1.79626	 62.323052	
1.82952	 62.404449	
1.86278	 62.537786	
1.89605	 62.514562	
1.92931	 62.496548	
1.96258	 62.431735	
1.99584	 62.435602	
2.0291	 62.502544	
2.06237	 62.590050	
2.09563	 62.596758	
2.1289	 62.676825	
2.16216	 62.647235	
2.19542	 62.593485	
2.22869	 62.584685	
2.26195	 62.561636	
2.29522	 62.622453	
2.32848	 62.551666	
2.36174	 62.568561	
2.39501	 62.555613	
2.42827	 62.581187	
2.46154	 62.579017	
2.4948	 62.629176	
2.52806	 62.611117	
2.56133	 62.585861	
2.59459	 62.577462	
2.62786	 62.607580	
2.66112	 62.692118	
2.69438	 62.773191	
2.72765	 62.761268	
2.76091	 62.831145	
2.79418	 62.787756	
2.82744	 62.751247	
2.8607	 62.695412	
2.89397	 62.721426	
2.92723	 62.754902	
2.9605	 62.745186	
2.99376	 62.743937	
3.02702	 62.804981	
3.06029	 62.821571	
3.09355	 62.787663	
3.12682	 62.817494	
3.16008	 62.892864	
3.19334	 62.945748	
3.22661	 62.914879	
3.25987	 62.972912	
3.29314	 62.981471	
3.3264	 62.917640	
3.35966	 62.936481	
3.39293	 62.973116	
3.42619	 63.017522	
3.45946	 62.989030	
3.49272	 63.029664	
3.52598	 63.066476	
3.55925	 62.896132	
3.59251	 62.927982	
3.62578	 62.933764	
3.65904	 62.981649	
3.6923	 62.972322	
3.72557	 62.996457	
3.75883	 63.162573	
3.7921	 63.178523	
3.82536	 63.102206	
3.85862	 63.091501	
3.89189	 63.096857	
3.92515	 63.157587	
3.95842	 63.215928	
3.99168	 63.262686	
4.02494	 63.127527	
4.05821	 63.119341	
4.09147	 63.121669	
4.12474	 63.000462	
4.158	 62.889221	
4.19126	 62.997864	
4.22453	 62.979644	
4.25779	 63.008636	
4.29106	 63.269122	
4.32432	 63.109525	
4.35758	 62.956337	
4.39085	 63.238095	
4.42411	 63.178111	
4.45738	 63.136943	
4.49064	 62.718758	
4.5239	 62.632690	
4.55717	 62.350689	
4.59043	 62.844724	
4.6237	 63.223341	
4.65696	 62.958463	
4.69022	 62.592393	
4.72349	 62.498081	
4.75675	 62.170053	
4.79002	 62.114927	
4.82328	 61.866049	
4.85654	 61.388081	
4.88981	 61.423919	
4.92307	 61.042642	
4.95634	 60.464188	
4.9896	 60.367737	
5.02286	 60.221493	
5.05613	 60.126172	
5.08939	 60.033761	
5.12266	 59.973717	
5.15592	 59.892311	
5.18918	 59.840539	
5.22245	 59.882487	
5.25571	 59.837293	
5.28898	 59.862944	
5.32224	 59.886922	
5.3555	 59.821388	
5.38877	 59.878128	
5.42203	 54.254972	
5.4553	 54.128361	
5.48856	 54.320414	
5.52182	 54.501565	
5.55509	 54.516732	
5.58835	 53.682936	
5.62162	 53.678814	
5.65488	 53.778456	
5.68814	 53.852468	
5.72141	 53.960676	
5.75467	 54.056830	
5.78794	 54.168912	
5.8212	 54.150083	
5.85446	 54.247091	
5.88773	 54.489130	
5.92099	 54.519107	
5.95426	 54.647216	
5.98752	 54.943393	
6.02078	 54.890679	
6.05405	 55.104983	
6.08731	 55.180362	
6.12058	 55.147013	
6.15384	 50.163492	
6.1871	 50.156281	
6.22037	 50.191514	
6.25363	 50.223999	
6.2869	 50.394582	
6.32016	 50.267365	
6.35342	 50.231705	
6.38669	 50.249831	
6.41995	 50.280386	
6.45322	 50.175207	
6.48648	 50.195894	
6.51974	 50.256996	
6.55301	 50.248954	
6.58627	 50.460129	
6.61954	 50.581898	
6.6528	 50.764748	
6.68606	 50.887332	
6.71933	 50.881726	
6.75259	 50.975416	
6.78586	 50.900274	
6.81912	 50.831298	
6.85238	 50.792766	
6.88565	 50.808079	
6.91891	 50.727568	
6.95218	 50.618608	
6.98544	 50.278021	
7.0187	 50.249196	
7.05197	 49.983440	
7.08523	 49.899639	
7.1185	 49.843110	
7.15176	 50.114364	
7.18502	 50.122329	
7.21829	 50.132972	
7.25155	 50.116000	
7.28482	 50.153674	
7.31808	 50.252599	
7.35134	 50.220605	
7.38461	 50.255708	
7.41787	 50.179747	
7.45114	 50.090172	
7.4844	 50.141588	
7.51766	 50.032512	
7.55093	 49.863630	
7.58419	 49.811377	
7.61746	 49.819610	
7.65072	 49.901151	
7.68398	 49.871084	
7.71725	 49.882616	
7.75051	 49.891308	
7.78378	 49.965022	
7.81704	 49.926433	
7.8503	 49.936556	
7.88357	 49.948293	
7.91683	 49.903224	
7.9501	 49.962567	
7.98336	 49.869663	
8.01662	 49.797012	
8.04989	 49.871022	
8.08315	 49.848818	
8.11642	 49.826314	
8.14968	 49.928068	
8.18294	 49.958199	
8.21621	 49.982469	
8.24947	 49.903061	
8.28274	 49.830333	
8.316	 49.837089	
8.34926	 49.817445	
8.38253	 49.743341	
8.41579	 49.699373	
8.44906	 49.623143	
8.48232	 49.645133	
8.51558	 49.442711	
8.54885	 49.273741	
8.58211	 49.451472	
8.61538	 49.362355	
8.64864	 49.408564	
8.6819	 49.362219	
8.71517	 49.667427	
8.74843	 49.755402	
8.7817	 49.759284	
8.81496	 49.750028	
8.84822	 49.769949	
8.88149	 49.742935	
8.91475	 49.829165	
8.94802	 49.784021	
8.98128	 49.827204	
9.01454	 49.910135	
9.04781	 49.980036	
9.08107	 50.068974	
9.11434	 50.156993	
9.1476	 50.414618	
9.18086	 50.421234	
9.21413	 50.404521	
9.24739	 50.243919	
9.28066	 50.176966	
9.31392	 50.206454	
9.34718	 50.043092	
9.38045	 50.036339	
9.41371	 50.075580	
9.44698	 50.103664	
9.48024	 50.175653	
9.5135	 50.236348	
9.54677	 50.317114	
9.58003	 50.271003	
9.6133	 50.218471	
9.64656	 50.250273	
9.67982	 50.225554	
9.71309	 50.188555	
9.74635	 50.196085	
9.77962	 50.171065	
9.81288	 50.283077	
9.84614	 50.335145	
9.87941	 50.324731	
9.91267	 50.247725	
9.94594	 50.330730	
9.9792	 50.257290	
10.0125	 50.310368	
10.0457	 50.333775	
10.079	 50.314630	
10.1123	 50.461907	
10.1455	 50.440581	
10.1788	 50.513957	
10.212	 50.609353	
10.2453	 51.260980	
10.2786	 51.511023	
10.3118	 51.576339	
10.3451	 52.525086	
10.3784	 52.876383	
10.4116	 53.054156	
10.4449	 53.318287	
10.4782	 53.332313	
10.5114	 53.427941	
10.5447	 53.561399	
10.578	 53.208142	
10.6112	 53.327409	
10.6445	 52.994179	
10.6777	 52.851629	
10.711	 52.809301	
10.7443	 52.740028	
10.7775	 52.781125	
10.8108	 52.818096	
10.8441	 52.776920	
10.8773	 52.779053	
10.9106	 52.980786	
10.9439	 53.002634	
10.9771	 53.007889	
11.0104	 52.961685	
11.0436	 52.966313	
11.0769	 52.820477	
11.1102	 52.810301	
11.1434	 52.812817	
11.1767	 53.075252	
11.21	 53.195023	
11.2432	 53.321319	
11.2765	 53.618411	
11.3098	 53.757713	
11.343	 53.699666	
11.3763	 53.551481	
11.4096	 53.352346	
11.4428	 53.274879	
11.4761	 53.187025	
11.5093	 53.196987	
11.5426	 53.296450	
11.5759	 53.328592	
11.6091	 53.373117	
11.6424	 53.476647	
11.6757	 53.628358	
11.7089	 53.679051	
11.7422	 54.206881	
11.7755	 54.165863	
11.8087	 54.410373	
11.842	 54.511610	
11.8752	 54.477430	
11.9085	 54.500364	
11.9418	 54.547095	
11.975	 54.492945	
12.0083	 54.551929	
12.0416	 54.492423	
